<mxfile host="app.diagrams.net" modified="2023-01-12T00:51:32.566Z" agent="5.0 (Windows NT 10.0; Win64; x64) AppleWebKit/537.36 (KHTML, like Gecko) Chrome/108.0.0.0 Safari/537.36" etag="r8yuTdPrJSkje8MU5rsC" version="20.2.8" type="github">
  <diagram id="rWyBkWQSV_APgK2U7mX-" name="Page-1">
    <mxGraphModel dx="1123" dy="596" grid="1" gridSize="10" guides="1" tooltips="1" connect="0" arrows="0" fold="1" page="1" pageScale="1" pageWidth="3600" pageHeight="2400" math="0" shadow="0">
      <root>
        <mxCell id="0" />
        <mxCell id="1" parent="0" />
        <mxCell id="HTxTwTqboUQHKQJmIyJy-178" value="&lt;span style=&quot;color: rgba(0, 0, 0, 0); font-family: monospace; font-size: 0px; text-align: start;&quot;&gt;ct&lt;/span&gt;" style="rounded=0;whiteSpace=wrap;html=1;strokeColor=#D6D6D6;fillColor=#FFFFFF;container=0;" vertex="1" parent="1">
          <mxGeometry x="1340" y="90" width="20" height="390" as="geometry" />
        </mxCell>
        <mxCell id="HTxTwTqboUQHKQJmIyJy-11" value="Timeline" style="rounded=0;whiteSpace=wrap;html=1;strokeColor=none;fillColor=#D6D6D6;align=left;" vertex="1" parent="1">
          <mxGeometry x="840" y="50" width="540" height="20" as="geometry" />
        </mxCell>
        <mxCell id="HTxTwTqboUQHKQJmIyJy-1" value="&lt;span style=&quot;font-size: 11px;&quot;&gt;Access Key Rotation Cycle&lt;/span&gt;" style="rounded=0;whiteSpace=wrap;html=1;strokeColor=#D6D6D6;fillColor=#f7c382;align=left;spacingLeft=10;fontSize=11;" vertex="1" parent="1">
          <mxGeometry x="440" y="90" width="280" height="30" as="geometry" />
        </mxCell>
        <mxCell id="HTxTwTqboUQHKQJmIyJy-52" value="#" style="rounded=0;whiteSpace=wrap;html=1;strokeColor=none;fillColor=#D6D6D6;align=center;fontSize=11;" vertex="1" parent="1">
          <mxGeometry x="440" y="50" width="40" height="40" as="geometry" />
        </mxCell>
        <mxCell id="HTxTwTqboUQHKQJmIyJy-53" value="&lt;span style=&quot;font-size: 11px;&quot;&gt;Task Name&lt;/span&gt;" style="rounded=0;whiteSpace=wrap;html=1;strokeColor=none;fillColor=#D6D6D6;align=center;fontSize=11;" vertex="1" parent="1">
          <mxGeometry x="480" y="50" width="280" height="40" as="geometry" />
        </mxCell>
        <mxCell id="HTxTwTqboUQHKQJmIyJy-179" value="101" style="whiteSpace=wrap;html=1;aspect=fixed;strokeColor=none;strokeWidth=1;fillColor=#ffffff;fontColor=#000000;align=center;fontSize=10;" vertex="1" parent="1">
          <mxGeometry x="1340" y="70" width="20" height="20" as="geometry" />
        </mxCell>
        <mxCell id="HTxTwTqboUQHKQJmIyJy-145" value="" style="group;fillColor=#ffffff;align=center;fontColor=#000000;strokeColor=none;fontSize=10;" vertex="1" connectable="0" parent="1">
          <mxGeometry x="1040" y="70" width="100" height="20" as="geometry" />
        </mxCell>
        <mxCell id="HTxTwTqboUQHKQJmIyJy-146" value="..." style="whiteSpace=wrap;html=1;aspect=fixed;strokeColor=none;strokeWidth=1;fillColor=#ffffff;fontColor=#000000;align=center;fontSize=10;" vertex="1" parent="1">
          <mxGeometry x="1040" y="70" width="20" height="20" as="geometry" />
        </mxCell>
        <mxCell id="HTxTwTqboUQHKQJmIyJy-147" value="87" style="whiteSpace=wrap;html=1;aspect=fixed;strokeColor=none;strokeWidth=1;fillColor=#ffffff;fontColor=#000000;align=center;fontSize=10;" vertex="1" parent="1">
          <mxGeometry x="1060" y="70" width="20" height="20" as="geometry" />
        </mxCell>
        <mxCell id="HTxTwTqboUQHKQJmIyJy-148" value="89" style="whiteSpace=wrap;html=1;aspect=fixed;strokeColor=none;strokeWidth=1;fillColor=#ffffff;fontColor=#000000;align=center;fontSize=10;" vertex="1" parent="1">
          <mxGeometry x="1100" y="70" width="20" height="20" as="geometry" />
        </mxCell>
        <mxCell id="HTxTwTqboUQHKQJmIyJy-149" value="88" style="whiteSpace=wrap;html=1;aspect=fixed;strokeColor=none;strokeWidth=1;fillColor=#ffffff;fontColor=#000000;align=center;fontSize=10;" vertex="1" parent="1">
          <mxGeometry x="1080" y="70" width="20" height="20" as="geometry" />
        </mxCell>
        <mxCell id="HTxTwTqboUQHKQJmIyJy-150" value="90" style="whiteSpace=wrap;html=1;aspect=fixed;strokeColor=none;strokeWidth=1;fillColor=#ffffff;fontColor=#000000;align=center;fontSize=10;" vertex="1" parent="1">
          <mxGeometry x="1120" y="70" width="20" height="20" as="geometry" />
        </mxCell>
        <mxCell id="HTxTwTqboUQHKQJmIyJy-140" value="" style="rounded=0;whiteSpace=wrap;html=1;strokeColor=#D6D6D6;fillColor=#FFFFFF;container=0;" vertex="1" parent="1">
          <mxGeometry x="1080" y="90" width="20" height="390" as="geometry" />
        </mxCell>
        <mxCell id="HTxTwTqboUQHKQJmIyJy-141" value="" style="rounded=0;whiteSpace=wrap;html=1;strokeColor=#D6D6D6;fillColor=#FFFFFF;container=0;" vertex="1" parent="1">
          <mxGeometry x="1100" y="90" width="20" height="390" as="geometry" />
        </mxCell>
        <mxCell id="HTxTwTqboUQHKQJmIyJy-142" value="" style="rounded=0;whiteSpace=wrap;html=1;strokeColor=#D6D6D6;fillColor=#FFFFFF;container=0;" vertex="1" parent="1">
          <mxGeometry x="1120" y="90" width="20" height="390" as="geometry" />
        </mxCell>
        <mxCell id="HTxTwTqboUQHKQJmIyJy-143" value="" style="rounded=0;whiteSpace=wrap;html=1;strokeColor=#D6D6D6;fillColor=#FFFFFF;container=0;" vertex="1" parent="1">
          <mxGeometry x="1040" y="90" width="20" height="390" as="geometry" />
        </mxCell>
        <mxCell id="HTxTwTqboUQHKQJmIyJy-144" value="" style="rounded=0;whiteSpace=wrap;html=1;strokeColor=#D6D6D6;fillColor=#FFFFFF;container=0;" vertex="1" parent="1">
          <mxGeometry x="1060" y="90" width="20" height="390" as="geometry" />
        </mxCell>
        <mxCell id="HTxTwTqboUQHKQJmIyJy-158" value="" style="group;fillColor=#ffffff;align=center;fontColor=#000000;strokeColor=none;fontSize=10;" vertex="1" connectable="0" parent="1">
          <mxGeometry x="1140" y="70" width="100" height="20" as="geometry" />
        </mxCell>
        <mxCell id="HTxTwTqboUQHKQJmIyJy-159" value="91" style="whiteSpace=wrap;html=1;aspect=fixed;strokeColor=none;strokeWidth=1;fillColor=#ffffff;fontColor=#000000;align=center;fontSize=10;" vertex="1" parent="1">
          <mxGeometry x="1140" y="70" width="20" height="20" as="geometry" />
        </mxCell>
        <mxCell id="HTxTwTqboUQHKQJmIyJy-160" value="92" style="whiteSpace=wrap;html=1;aspect=fixed;strokeColor=none;strokeWidth=1;fillColor=#ffffff;fontColor=#000000;align=center;fontSize=10;" vertex="1" parent="1">
          <mxGeometry x="1160" y="70" width="20" height="20" as="geometry" />
        </mxCell>
        <mxCell id="HTxTwTqboUQHKQJmIyJy-161" value="94" style="whiteSpace=wrap;html=1;aspect=fixed;strokeColor=none;strokeWidth=1;fillColor=#ffffff;fontColor=#000000;align=center;fontSize=10;" vertex="1" parent="1">
          <mxGeometry x="1200" y="70" width="20" height="20" as="geometry" />
        </mxCell>
        <mxCell id="HTxTwTqboUQHKQJmIyJy-162" value="93" style="whiteSpace=wrap;html=1;aspect=fixed;strokeColor=none;strokeWidth=1;fillColor=#ffffff;fontColor=#000000;align=center;fontSize=10;" vertex="1" parent="1">
          <mxGeometry x="1180" y="70" width="20" height="20" as="geometry" />
        </mxCell>
        <mxCell id="HTxTwTqboUQHKQJmIyJy-163" value="95" style="whiteSpace=wrap;html=1;aspect=fixed;strokeColor=none;strokeWidth=1;fillColor=#ffffff;fontColor=#000000;align=center;fontSize=10;" vertex="1" parent="1">
          <mxGeometry x="1220" y="70" width="20" height="20" as="geometry" />
        </mxCell>
        <mxCell id="HTxTwTqboUQHKQJmIyJy-153" value="" style="rounded=0;whiteSpace=wrap;html=1;strokeColor=#D6D6D6;fillColor=#FFFFFF;container=0;" vertex="1" parent="1">
          <mxGeometry x="1180" y="90" width="20" height="390" as="geometry" />
        </mxCell>
        <mxCell id="HTxTwTqboUQHKQJmIyJy-154" value="" style="rounded=0;whiteSpace=wrap;html=1;strokeColor=#D6D6D6;fillColor=#FFFFFF;container=0;" vertex="1" parent="1">
          <mxGeometry x="1200" y="90" width="20" height="390" as="geometry" />
        </mxCell>
        <mxCell id="HTxTwTqboUQHKQJmIyJy-155" value="" style="rounded=0;whiteSpace=wrap;html=1;strokeColor=#D6D6D6;fillColor=#FFFFFF;container=0;" vertex="1" parent="1">
          <mxGeometry x="1220" y="90" width="20" height="390" as="geometry" />
        </mxCell>
        <mxCell id="HTxTwTqboUQHKQJmIyJy-156" value="" style="rounded=0;whiteSpace=wrap;html=1;strokeColor=#D6D6D6;fillColor=#FFFFFF;container=0;" vertex="1" parent="1">
          <mxGeometry x="1140" y="90" width="20" height="390" as="geometry" />
        </mxCell>
        <mxCell id="HTxTwTqboUQHKQJmIyJy-157" value="" style="rounded=0;whiteSpace=wrap;html=1;strokeColor=#D6D6D6;fillColor=#FFFFFF;container=0;" vertex="1" parent="1">
          <mxGeometry x="1160" y="90" width="20" height="390" as="geometry" />
        </mxCell>
        <mxCell id="HTxTwTqboUQHKQJmIyJy-172" value="" style="group;fillColor=#ffffff;align=center;fontColor=#000000;strokeColor=none;fontSize=10;" vertex="1" connectable="0" parent="1">
          <mxGeometry x="1240" y="70" width="100" height="20" as="geometry" />
        </mxCell>
        <mxCell id="HTxTwTqboUQHKQJmIyJy-173" value="96" style="whiteSpace=wrap;html=1;aspect=fixed;strokeColor=none;strokeWidth=1;fillColor=#ffffff;fontColor=#000000;align=center;fontSize=10;" vertex="1" parent="1">
          <mxGeometry x="1240" y="70" width="20" height="20" as="geometry" />
        </mxCell>
        <mxCell id="HTxTwTqboUQHKQJmIyJy-174" value="97" style="whiteSpace=wrap;html=1;aspect=fixed;strokeColor=none;strokeWidth=1;fillColor=#ffffff;fontColor=#000000;align=center;fontSize=10;" vertex="1" parent="1">
          <mxGeometry x="1260" y="70" width="20" height="20" as="geometry" />
        </mxCell>
        <mxCell id="HTxTwTqboUQHKQJmIyJy-175" value="99" style="whiteSpace=wrap;html=1;aspect=fixed;strokeColor=none;strokeWidth=1;fillColor=#ffffff;fontColor=#000000;align=center;fontSize=10;" vertex="1" parent="1">
          <mxGeometry x="1300" y="70" width="20" height="20" as="geometry" />
        </mxCell>
        <mxCell id="HTxTwTqboUQHKQJmIyJy-176" value="98" style="whiteSpace=wrap;html=1;aspect=fixed;strokeColor=none;strokeWidth=1;fillColor=#ffffff;fontColor=#000000;align=center;fontSize=10;" vertex="1" parent="1">
          <mxGeometry x="1280" y="70" width="20" height="20" as="geometry" />
        </mxCell>
        <mxCell id="HTxTwTqboUQHKQJmIyJy-177" value="100" style="whiteSpace=wrap;html=1;aspect=fixed;strokeColor=none;strokeWidth=1;fillColor=#ffffff;fontColor=#000000;align=center;fontSize=10;" vertex="1" parent="1">
          <mxGeometry x="1320" y="70" width="20" height="20" as="geometry" />
        </mxCell>
        <mxCell id="HTxTwTqboUQHKQJmIyJy-170" value="" style="rounded=0;whiteSpace=wrap;html=1;strokeColor=#D6D6D6;fillColor=#FFFFFF;container=0;" vertex="1" parent="1">
          <mxGeometry x="1240" y="90" width="20" height="390" as="geometry" />
        </mxCell>
        <mxCell id="HTxTwTqboUQHKQJmIyJy-167" value="" style="rounded=0;whiteSpace=wrap;html=1;strokeColor=#D6D6D6;fillColor=#FFFFFF;container=0;" vertex="1" parent="1">
          <mxGeometry x="1280" y="90" width="20" height="390" as="geometry" />
        </mxCell>
        <mxCell id="HTxTwTqboUQHKQJmIyJy-168" value="" style="rounded=0;whiteSpace=wrap;html=1;strokeColor=#D6D6D6;fillColor=#FFFFFF;container=0;" vertex="1" parent="1">
          <mxGeometry x="1300" y="90" width="20" height="390" as="geometry" />
        </mxCell>
        <mxCell id="HTxTwTqboUQHKQJmIyJy-169" value="&lt;span style=&quot;color: rgba(0, 0, 0, 0); font-family: monospace; font-size: 0px; text-align: start;&quot;&gt;%3CmxGraphModel%3E%3Croot%3E%3CmxCell%20id%3D%220%22%2F%3E%3CmxCell%20id%3D%221%22%20parent%3D%220%22%2F%3E%3CmxCell%20id%3D%222%22%20value%3D%22%22%20style%3D%22group%22%20vertex%3D%221%22%20connectable%3D%220%22%20parent%3D%221%22%3E%3CmxGeometry%20x%3D%221300%22%20y%3D%2270%22%20width%3D%22100%22%20height%3D%22470%22%20as%3D%22geometry%22%2F%3E%3C%2FmxCell%3E%3CmxCell%20id%3D%223%22%20value%3D%22%22%20style%3D%22group%22%20vertex%3D%221%22%20connectable%3D%220%22%20parent%3D%222%22%3E%3CmxGeometry%20y%3D%2220%22%20width%3D%22100%22%20height%3D%22450%22%20as%3D%22geometry%22%2F%3E%3C%2FmxCell%3E%3CmxCell%20id%3D%224%22%20value%3D%22%22%20style%3D%22rounded%3D0%3BwhiteSpace%3Dwrap%3Bhtml%3D1%3BstrokeColor%3D%23D6D6D6%3BfillColor%3D%23FFFFFF%3B%22%20vertex%3D%221%22%20parent%3D%223%22%3E%3CmxGeometry%20x%3D%2240%22%20width%3D%2220%22%20height%3D%22450%22%20as%3D%22geometry%22%2F%3E%3C%2FmxCell%3E%3CmxCell%20id%3D%225%22%20value%3D%22%22%20style%3D%22rounded%3D0%3BwhiteSpace%3Dwrap%3Bhtml%3D1%3BstrokeColor%3D%23D6D6D6%3BfillColor%3D%23FFFFFF%3B%22%20vertex%3D%221%22%20parent%3D%223%22%3E%3CmxGeometry%20x%3D%2260%22%20width%3D%2220%22%20height%3D%22450%22%20as%3D%22geometry%22%2F%3E%3C%2FmxCell%3E%3CmxCell%20id%3D%226%22%20value%3D%22%22%20style%3D%22rounded%3D0%3BwhiteSpace%3Dwrap%3Bhtml%3D1%3BstrokeColor%3D%23D6D6D6%3BfillColor%3D%23FFFFFF%3B%22%20vertex%3D%221%22%20parent%3D%223%22%3E%3CmxGeometry%20x%3D%2280%22%20width%3D%2220%22%20height%3D%22450%22%20as%3D%22geometry%22%2F%3E%3C%2FmxCell%3E%3CmxCell%20id%3D%227%22%20value%3D%22%22%20style%3D%22rounded%3D0%3BwhiteSpace%3Dwrap%3Bhtml%3D1%3BstrokeColor%3D%23D6D6D6%3BfillColor%3D%23FFFFFF%3B%22%20vertex%3D%221%22%20parent%3D%223%22%3E%3CmxGeometry%20width%3D%2220%22%20height%3D%22450%22%20as%3D%22geometry%22%2F%3E%3C%2FmxCell%3E%3CmxCell%20id%3D%228%22%20value%3D%22%22%20style%3D%22rounded%3D0%3BwhiteSpace%3Dwrap%3Bhtml%3D1%3BstrokeColor%3D%23D6D6D6%3BfillColor%3D%23FFFFFF%3B%22%20vertex%3D%221%22%20parent%3D%223%22%3E%3CmxGeometry%20x%3D%2220%22%20width%3D%2220%22%20height%3D%22450%22%20as%3D%22geometry%22%2F%3E%3C%2FmxCell%3E%3CmxCell%20id%3D%229%22%20value%3D%22%22%20style%3D%22group%3BfillColor%3D%23ffffff%3Balign%3Dcenter%3BfontColor%3D%23000000%3BstrokeColor%3Dnone%3B%22%20vertex%3D%221%22%20connectable%3D%220%22%20parent%3D%222%22%3E%3CmxGeometry%20width%3D%22100%22%20height%3D%2220%22%20as%3D%22geometry%22%2F%3E%3C%2FmxCell%3E%3CmxCell%20id%3D%2210%22%20value%3D%2216%22%20style%3D%22whiteSpace%3Dwrap%3Bhtml%3D1%3Baspect%3Dfixed%3BstrokeColor%3Dnone%3BstrokeWidth%3D1%3BfillColor%3D%23ffffff%3BfontColor%3D%23000000%3Balign%3Dcenter%3B%22%20vertex%3D%221%22%20parent%3D%222%22%3E%3CmxGeometry%20width%3D%2220%22%20height%3D%2220%22%20as%3D%22geometry%22%2F%3E%3C%2FmxCell%3E%3CmxCell%20id%3D%2211%22%20value%3D%2217%22%20style%3D%22whiteSpace%3Dwrap%3Bhtml%3D1%3Baspect%3Dfixed%3BstrokeColor%3Dnone%3BstrokeWidth%3D1%3BfillColor%3D%23ffffff%3BfontColor%3D%23000000%3Balign%3Dcenter%3B%22%20vertex%3D%221%22%20parent%3D%222%22%3E%3CmxGeometry%20x%3D%2220%22%20width%3D%2220%22%20height%3D%2220%22%20as%3D%22geometry%22%2F%3E%3C%2FmxCell%3E%3CmxCell%20id%3D%2212%22%20value%3D%2219%22%20style%3D%22whiteSpace%3Dwrap%3Bhtml%3D1%3Baspect%3Dfixed%3BstrokeColor%3Dnone%3BstrokeWidth%3D1%3BfillColor%3D%23ffffff%3BfontColor%3D%23000000%3Balign%3Dcenter%3B%22%20vertex%3D%221%22%20parent%3D%222%22%3E%3CmxGeometry%20x%3D%2260%22%20width%3D%2220%22%20height%3D%2220%22%20as%3D%22geometry%22%2F%3E%3C%2FmxCell%3E%3CmxCell%20id%3D%2213%22%20value%3D%2218%22%20style%3D%22whiteSpace%3Dwrap%3Bhtml%3D1%3Baspect%3Dfixed%3BstrokeColor%3Dnone%3BstrokeWidth%3D1%3BfillColor%3D%23ffffff%3BfontColor%3D%23000000%3Balign%3Dcenter%3B%22%20vertex%3D%221%22%20parent%3D%222%22%3E%3CmxGeometry%20x%3D%2240%22%20width%3D%2220%22%20height%3D%2220%22%20as%3D%22geometry%22%2F%3E%3C%2FmxCell%3E%3CmxCell%20id%3D%2214%22%20value%3D%2220%22%20style%3D%22whiteSpace%3Dwrap%3Bhtml%3D1%3Baspect%3Dfixed%3BstrokeColor%3Dnone%3BstrokeWidth%3D1%3BfillColor%3D%23ffffff%3BfontColor%3D%23000000%3Balign%3Dcenter%3B%22%20vertex%3D%221%22%20parent%3D%222%22%3E%3CmxGeometry%20x%3D%2280%22%20width%3D%2220%22%20height%3D%2220%22%20as%3D%22geometry%22%2F%3E%3C%2FmxCell%3E%3C%2Froot%3E%3C%2FmxGraphModel%3E&lt;/span&gt;" style="rounded=0;whiteSpace=wrap;html=1;strokeColor=#D6D6D6;fillColor=#FFFFFF;container=0;" vertex="1" parent="1">
          <mxGeometry x="1320" y="90" width="20" height="390" as="geometry" />
        </mxCell>
        <mxCell id="HTxTwTqboUQHKQJmIyJy-171" value="" style="rounded=0;whiteSpace=wrap;html=1;strokeColor=#D6D6D6;fillColor=#FFFFFF;container=0;" vertex="1" parent="1">
          <mxGeometry x="1260" y="90" width="20" height="390" as="geometry" />
        </mxCell>
        <mxCell id="HTxTwTqboUQHKQJmIyJy-132" value="" style="group;fillColor=#ffffff;align=center;fontColor=#000000;strokeColor=none;fontSize=10;" vertex="1" connectable="0" parent="1">
          <mxGeometry x="940" y="70" width="100" height="20" as="geometry" />
        </mxCell>
        <mxCell id="HTxTwTqboUQHKQJmIyJy-133" value="6" style="whiteSpace=wrap;html=1;aspect=fixed;strokeColor=none;strokeWidth=1;fillColor=#ffffff;fontColor=#000000;align=center;fontSize=10;" vertex="1" parent="1">
          <mxGeometry x="940" y="70" width="20" height="20" as="geometry" />
        </mxCell>
        <mxCell id="HTxTwTqboUQHKQJmIyJy-134" value="7" style="whiteSpace=wrap;html=1;aspect=fixed;strokeColor=none;strokeWidth=1;fillColor=#ffffff;fontColor=#000000;align=center;fontSize=10;" vertex="1" parent="1">
          <mxGeometry x="960" y="70" width="20" height="20" as="geometry" />
        </mxCell>
        <mxCell id="HTxTwTqboUQHKQJmIyJy-135" value="9" style="whiteSpace=wrap;html=1;aspect=fixed;strokeColor=none;strokeWidth=1;fillColor=#ffffff;fontColor=#000000;align=center;fontSize=10;" vertex="1" parent="1">
          <mxGeometry x="1000" y="70" width="20" height="20" as="geometry" />
        </mxCell>
        <mxCell id="HTxTwTqboUQHKQJmIyJy-136" value="8" style="whiteSpace=wrap;html=1;aspect=fixed;strokeColor=none;strokeWidth=1;fillColor=#ffffff;fontColor=#000000;align=center;fontSize=10;" vertex="1" parent="1">
          <mxGeometry x="980" y="70" width="20" height="20" as="geometry" />
        </mxCell>
        <mxCell id="HTxTwTqboUQHKQJmIyJy-137" value="10" style="whiteSpace=wrap;html=1;aspect=fixed;strokeColor=none;strokeWidth=1;fillColor=#ffffff;fontColor=#000000;align=center;fontSize=10;" vertex="1" parent="1">
          <mxGeometry x="1020" y="70" width="20" height="20" as="geometry" />
        </mxCell>
        <mxCell id="HTxTwTqboUQHKQJmIyJy-127" value="" style="rounded=0;whiteSpace=wrap;html=1;strokeColor=#D6D6D6;fillColor=#FFFFFF;container=0;" vertex="1" parent="1">
          <mxGeometry x="980" y="90" width="20" height="390" as="geometry" />
        </mxCell>
        <mxCell id="HTxTwTqboUQHKQJmIyJy-128" value="" style="rounded=0;whiteSpace=wrap;html=1;strokeColor=#D6D6D6;fillColor=#FFFFFF;container=0;" vertex="1" parent="1">
          <mxGeometry x="1000" y="90" width="20" height="390" as="geometry" />
        </mxCell>
        <mxCell id="HTxTwTqboUQHKQJmIyJy-129" value="" style="rounded=0;whiteSpace=wrap;html=1;strokeColor=#D6D6D6;fillColor=#FFFFFF;container=0;" vertex="1" parent="1">
          <mxGeometry x="1020" y="90" width="20" height="390" as="geometry" />
        </mxCell>
        <mxCell id="HTxTwTqboUQHKQJmIyJy-130" value="" style="rounded=0;whiteSpace=wrap;html=1;strokeColor=#D6D6D6;fillColor=#FFFFFF;container=0;" vertex="1" parent="1">
          <mxGeometry x="940" y="90" width="20" height="390" as="geometry" />
        </mxCell>
        <mxCell id="HTxTwTqboUQHKQJmIyJy-131" value="" style="rounded=0;whiteSpace=wrap;html=1;strokeColor=#D6D6D6;fillColor=#FFFFFF;container=0;" vertex="1" parent="1">
          <mxGeometry x="960" y="90" width="20" height="390" as="geometry" />
        </mxCell>
        <mxCell id="HTxTwTqboUQHKQJmIyJy-117" value="" style="group;fillColor=#ffffff;align=center;fontColor=#000000;strokeColor=none;fontSize=10;" vertex="1" connectable="0" parent="1">
          <mxGeometry x="840" y="70" width="100" height="20" as="geometry" />
        </mxCell>
        <mxCell id="HTxTwTqboUQHKQJmIyJy-120" value="4" style="whiteSpace=wrap;html=1;aspect=fixed;strokeColor=none;strokeWidth=1;fillColor=#ffffff;fontColor=#000000;align=center;fontSize=10;" vertex="1" parent="1">
          <mxGeometry x="900" y="70" width="20" height="20" as="geometry" />
        </mxCell>
        <mxCell id="HTxTwTqboUQHKQJmIyJy-121" value="3" style="whiteSpace=wrap;html=1;aspect=fixed;strokeColor=none;strokeWidth=1;fillColor=#ffffff;fontColor=#000000;align=center;fontSize=10;" vertex="1" parent="1">
          <mxGeometry x="880" y="70" width="20" height="20" as="geometry" />
        </mxCell>
        <mxCell id="HTxTwTqboUQHKQJmIyJy-122" value="5" style="whiteSpace=wrap;html=1;aspect=fixed;strokeColor=none;strokeWidth=1;fillColor=#ffffff;fontColor=#000000;align=center;fontSize=10;" vertex="1" parent="1">
          <mxGeometry x="920" y="70" width="20" height="20" as="geometry" />
        </mxCell>
        <mxCell id="HTxTwTqboUQHKQJmIyJy-115" value="" style="rounded=0;whiteSpace=wrap;html=1;strokeColor=#D6D6D6;fillColor=#FFFFFF;container=0;" vertex="1" parent="1">
          <mxGeometry x="840" y="90" width="20" height="390" as="geometry" />
        </mxCell>
        <mxCell id="HTxTwTqboUQHKQJmIyJy-112" value="" style="rounded=0;whiteSpace=wrap;html=1;strokeColor=#D6D6D6;fillColor=#FFFFFF;container=0;" vertex="1" parent="1">
          <mxGeometry x="880" y="90" width="20" height="390" as="geometry" />
        </mxCell>
        <mxCell id="HTxTwTqboUQHKQJmIyJy-113" value="" style="rounded=0;whiteSpace=wrap;html=1;strokeColor=#D6D6D6;fillColor=#FFFFFF;container=0;" vertex="1" parent="1">
          <mxGeometry x="900" y="90" width="20" height="390" as="geometry" />
        </mxCell>
        <mxCell id="HTxTwTqboUQHKQJmIyJy-114" value="" style="rounded=0;whiteSpace=wrap;html=1;strokeColor=#D6D6D6;fillColor=#FFFFFF;container=0;" vertex="1" parent="1">
          <mxGeometry x="920" y="90" width="20" height="390" as="geometry" />
        </mxCell>
        <mxCell id="HTxTwTqboUQHKQJmIyJy-116" value="" style="rounded=0;whiteSpace=wrap;html=1;strokeColor=#D6D6D6;fillColor=#FFFFFF;container=0;" vertex="1" parent="1">
          <mxGeometry x="860" y="90" width="20" height="390" as="geometry" />
        </mxCell>
        <mxCell id="HTxTwTqboUQHKQJmIyJy-180" value="" style="rounded=0;whiteSpace=wrap;html=1;fontFamily=Helvetica;fontSize=12;fontColor=#000000;align=left;strokeColor=#D6D6D6;fillColor=#f7c382;container=0;" vertex="1" parent="1">
          <mxGeometry x="840" y="90" width="520" height="30" as="geometry" />
        </mxCell>
        <mxCell id="HTxTwTqboUQHKQJmIyJy-182" value="" style="rounded=0;whiteSpace=wrap;html=1;fontFamily=Helvetica;fontSize=12;fontColor=#000000;align=left;strokeColor=#D6D6D6;fillColor=#D5E8D4;container=0;" vertex="1" parent="1">
          <mxGeometry x="840" y="180" width="480" height="30" as="geometry" />
        </mxCell>
        <mxCell id="HTxTwTqboUQHKQJmIyJy-183" value="" style="rounded=0;whiteSpace=wrap;html=1;fontFamily=Helvetica;fontSize=12;fontColor=#000000;align=left;strokeColor=#D6D6D6;fillColor=#B3B3B3;container=0;" vertex="1" parent="1">
          <mxGeometry x="1320" y="240" width="20" height="30" as="geometry" />
        </mxCell>
        <mxCell id="HTxTwTqboUQHKQJmIyJy-184" value="" style="rounded=0;whiteSpace=wrap;html=1;fontFamily=Helvetica;fontSize=12;fontColor=#000000;align=left;strokeColor=#D6D6D6;fillColor=#FFE6CC;container=0;" vertex="1" parent="1">
          <mxGeometry x="840" y="120" width="500" height="30" as="geometry" />
        </mxCell>
        <mxCell id="HTxTwTqboUQHKQJmIyJy-186" value="&lt;span style=&quot;color: rgba(0, 0, 0, 0); font-family: monospace; font-size: 0px; text-align: start;&quot;&gt;ct&lt;/span&gt;" style="rounded=0;whiteSpace=wrap;html=1;strokeColor=#D6D6D6;fillColor=#FFFFFF;container=0;" vertex="1" parent="1">
          <mxGeometry x="1360" y="90" width="20" height="390" as="geometry" />
        </mxCell>
        <mxCell id="HTxTwTqboUQHKQJmIyJy-187" value="..." style="whiteSpace=wrap;html=1;aspect=fixed;strokeColor=none;strokeWidth=1;fillColor=#ffffff;fontColor=#000000;align=center;fontSize=10;" vertex="1" parent="1">
          <mxGeometry x="1360" y="70" width="20" height="20" as="geometry" />
        </mxCell>
        <mxCell id="HTxTwTqboUQHKQJmIyJy-188" value="&lt;font style=&quot;font-size: 35px;&quot;&gt;•&lt;/font&gt;" style="rounded=0;whiteSpace=wrap;html=1;fontFamily=Helvetica;fontSize=12;fontColor=#FF0000;align=center;strokeColor=none;fillColor=none;container=0;" vertex="1" parent="1">
          <mxGeometry x="1340" y="270" width="20" height="30" as="geometry" />
        </mxCell>
        <mxCell id="HTxTwTqboUQHKQJmIyJy-209" value="&lt;font style=&quot;font-size: 35px;&quot;&gt;•&lt;/font&gt;" style="rounded=0;whiteSpace=wrap;html=1;fontFamily=Helvetica;fontSize=12;fontColor=#009900;align=center;strokeColor=none;fillColor=none;container=0;" vertex="1" parent="1">
          <mxGeometry x="1120" y="330" width="20" height="30" as="geometry" />
        </mxCell>
        <mxCell id="HTxTwTqboUQHKQJmIyJy-210" value="" style="rounded=0;whiteSpace=wrap;html=1;fontFamily=Helvetica;fontSize=12;fontColor=#000000;align=left;strokeColor=#D6D6D6;fillColor=#FFE6CC;container=0;" vertex="1" parent="1">
          <mxGeometry x="1120" y="300" width="260" height="30" as="geometry" />
        </mxCell>
        <mxCell id="HTxTwTqboUQHKQJmIyJy-216" value="&lt;font style=&quot;font-size: 35px;&quot;&gt;•&lt;/font&gt;" style="rounded=0;whiteSpace=wrap;html=1;fontFamily=Helvetica;fontSize=12;fontColor=#B3B3B3;align=center;strokeColor=none;fillColor=none;container=0;" vertex="1" parent="1">
          <mxGeometry x="1320" y="210" width="20" height="30" as="geometry" />
        </mxCell>
        <mxCell id="HTxTwTqboUQHKQJmIyJy-217" value="" style="rounded=0;whiteSpace=wrap;html=1;fontFamily=Helvetica;fontSize=12;fontColor=#000000;align=left;strokeColor=#D6D6D6;fillColor=#D5E8D4;container=0;" vertex="1" parent="1">
          <mxGeometry x="1120" y="360" width="260" height="30" as="geometry" />
        </mxCell>
        <mxCell id="HTxTwTqboUQHKQJmIyJy-218" value="..." style="rounded=0;whiteSpace=wrap;html=1;fontFamily=Helvetica;fontSize=12;fontColor=#000000;align=center;strokeColor=none;fillColor=none;container=0;" vertex="1" parent="1">
          <mxGeometry x="1360" y="300" width="20" height="30" as="geometry" />
        </mxCell>
        <mxCell id="HTxTwTqboUQHKQJmIyJy-219" value="..." style="rounded=0;whiteSpace=wrap;html=1;fontFamily=Helvetica;fontSize=12;fontColor=#000000;align=center;strokeColor=none;fillColor=none;container=0;" vertex="1" parent="1">
          <mxGeometry x="1360" y="360" width="20" height="30" as="geometry" />
        </mxCell>
        <mxCell id="HTxTwTqboUQHKQJmIyJy-220" value="" style="rounded=0;whiteSpace=wrap;html=1;fontFamily=Helvetica;fontSize=12;fontColor=#000000;align=left;strokeColor=#D6D6D6;fillColor=#F4E8FF;container=0;" vertex="1" parent="1">
          <mxGeometry x="1120" y="390" width="240" height="30" as="geometry" />
        </mxCell>
        <mxCell id="HTxTwTqboUQHKQJmIyJy-221" value="" style="group" vertex="1" connectable="0" parent="1">
          <mxGeometry x="440" y="120" width="400" height="390" as="geometry" />
        </mxCell>
        <mxCell id="HTxTwTqboUQHKQJmIyJy-2" value="Key A: Rotation Cycle" style="rounded=0;whiteSpace=wrap;html=1;strokeColor=#D6D6D6;fillColor=#FFE6CC;align=left;spacingLeft=10;fontSize=11;" vertex="1" parent="HTxTwTqboUQHKQJmIyJy-221">
          <mxGeometry width="320" height="30" as="geometry" />
        </mxCell>
        <mxCell id="HTxTwTqboUQHKQJmIyJy-3" value="&lt;span style=&quot;font-size: 11px;&quot;&gt;Access key created&lt;/span&gt;" style="rounded=0;whiteSpace=wrap;html=1;strokeColor=#D6D6D6;fillColor=#FFFFFF;align=left;spacingLeft=10;fontSize=11;" vertex="1" parent="HTxTwTqboUQHKQJmIyJy-221">
          <mxGeometry y="30" width="320" height="30" as="geometry" />
        </mxCell>
        <mxCell id="HTxTwTqboUQHKQJmIyJy-4" value="Access key is inactive" style="rounded=0;whiteSpace=wrap;html=1;strokeColor=#D6D6D6;fillColor=#FFFFFF;align=left;spacingLeft=10;fontSize=11;" vertex="1" parent="HTxTwTqboUQHKQJmIyJy-221">
          <mxGeometry y="120" width="320" height="30" as="geometry" />
        </mxCell>
        <mxCell id="HTxTwTqboUQHKQJmIyJy-7" value="&lt;span style=&quot;font-size: 11px;&quot;&gt;Key B: Rotation Cycle&lt;/span&gt;" style="rounded=0;whiteSpace=wrap;html=1;strokeColor=#D6D6D6;fillColor=#FBE1C0;align=left;spacingLeft=10;fontSize=11;" vertex="1" parent="HTxTwTqboUQHKQJmIyJy-221">
          <mxGeometry y="180" width="320" height="30" as="geometry" />
        </mxCell>
        <mxCell id="HTxTwTqboUQHKQJmIyJy-8" value="&lt;span style=&quot;font-size: 11px;&quot;&gt;Access key created&lt;/span&gt;" style="rounded=0;whiteSpace=wrap;html=1;strokeColor=#D6D6D6;fillColor=#FFFFFF;align=left;spacingLeft=10;fontSize=11;" vertex="1" parent="HTxTwTqboUQHKQJmIyJy-221">
          <mxGeometry y="210" width="320" height="30" as="geometry" />
        </mxCell>
        <mxCell id="HTxTwTqboUQHKQJmIyJy-9" value="&lt;span style=&quot;font-size: 11px;&quot;&gt;Access key is active&lt;/span&gt;" style="rounded=0;whiteSpace=wrap;html=1;strokeColor=#D6D6D6;fillColor=#FFFFFF;align=left;spacingLeft=10;fontSize=11;" vertex="1" parent="HTxTwTqboUQHKQJmIyJy-221">
          <mxGeometry y="240" width="320" height="30" as="geometry" />
        </mxCell>
        <mxCell id="HTxTwTqboUQHKQJmIyJy-10" value="&lt;span style=&quot;font-size: 11px;&quot;&gt;Rotation period&lt;/span&gt;" style="rounded=0;whiteSpace=wrap;html=1;strokeColor=#D6D6D6;fillColor=#F4E8FF;align=left;spacingLeft=10;fontSize=11;" vertex="1" parent="HTxTwTqboUQHKQJmIyJy-221">
          <mxGeometry y="270" width="320" height="30" as="geometry" />
        </mxCell>
        <mxCell id="HTxTwTqboUQHKQJmIyJy-12" value="&lt;span style=&quot;font-size: 11px;&quot;&gt;Email with Key B info is sent&lt;/span&gt;" style="rounded=0;whiteSpace=wrap;html=1;strokeColor=#D6D6D6;fillColor=#FFFFFF;align=left;spacingLeft=10;fontSize=11;" vertex="1" parent="HTxTwTqboUQHKQJmIyJy-221">
          <mxGeometry y="300" width="320" height="30" as="geometry" />
        </mxCell>
        <mxCell id="HTxTwTqboUQHKQJmIyJy-13" value="&lt;span style=&quot;font-size: 11px;&quot;&gt;Email reminder about pending Key A deletion is sent&lt;/span&gt;" style="rounded=0;whiteSpace=wrap;html=1;strokeColor=#D6D6D6;fillColor=#FFFFFF;align=left;spacingLeft=10;fontSize=11;" vertex="1" parent="HTxTwTqboUQHKQJmIyJy-221">
          <mxGeometry y="330" width="320" height="30" as="geometry" />
        </mxCell>
        <mxCell id="HTxTwTqboUQHKQJmIyJy-48" value="Access key is active" style="rounded=0;whiteSpace=wrap;html=1;strokeColor=#D6D6D6;fillColor=#FFFFFF;align=left;spacingLeft=10;fontSize=11;" vertex="1" parent="HTxTwTqboUQHKQJmIyJy-221">
          <mxGeometry y="60" width="320" height="30" as="geometry" />
        </mxCell>
        <mxCell id="HTxTwTqboUQHKQJmIyJy-50" value="&lt;span style=&quot;font-size: 11px;&quot;&gt;Access key deleted&lt;/span&gt;" style="rounded=0;whiteSpace=wrap;html=1;strokeColor=#D6D6D6;fillColor=#FFFFFF;align=left;spacingLeft=10;fontSize=11;" vertex="1" parent="HTxTwTqboUQHKQJmIyJy-221">
          <mxGeometry y="150" width="320" height="30" as="geometry" />
        </mxCell>
        <mxCell id="HTxTwTqboUQHKQJmIyJy-212" value="Access key is inactivated" style="rounded=0;whiteSpace=wrap;html=1;strokeColor=#D6D6D6;fillColor=#FFFFFF;align=left;spacingLeft=10;fontSize=11;" vertex="1" parent="HTxTwTqboUQHKQJmIyJy-221">
          <mxGeometry y="90" width="320" height="30" as="geometry" />
        </mxCell>
        <mxCell id="HTxTwTqboUQHKQJmIyJy-227" value="" style="group" vertex="1" connectable="0" parent="HTxTwTqboUQHKQJmIyJy-221">
          <mxGeometry x="280" y="-70" width="120" height="430" as="geometry" />
        </mxCell>
        <mxCell id="HTxTwTqboUQHKQJmIyJy-40" value="101 days" style="rounded=0;whiteSpace=wrap;html=1;strokeColor=#D6D6D6;fillColor=#FFE6CC;align=left;spacingLeft=10;spacingRight=8;fontSize=11;" vertex="1" parent="HTxTwTqboUQHKQJmIyJy-227">
          <mxGeometry y="70" width="120" height="30" as="geometry" />
        </mxCell>
        <mxCell id="HTxTwTqboUQHKQJmIyJy-41" value="First day" style="rounded=0;whiteSpace=wrap;html=1;strokeColor=#D6D6D6;fillColor=#FFFFFF;align=left;spacingLeft=10;spacingRight=8;fontSize=11;" vertex="1" parent="HTxTwTqboUQHKQJmIyJy-227">
          <mxGeometry y="100" width="120" height="30" as="geometry" />
        </mxCell>
        <mxCell id="HTxTwTqboUQHKQJmIyJy-54" value="Duration/&lt;br style=&quot;font-size: 11px;&quot;&gt;Day" style="rounded=0;whiteSpace=wrap;html=1;strokeColor=none;fillColor=#D6D6D6;align=center;fontSize=11;" vertex="1" parent="HTxTwTqboUQHKQJmIyJy-227">
          <mxGeometry width="120" height="40" as="geometry" />
        </mxCell>
        <mxCell id="HTxTwTqboUQHKQJmIyJy-59" value="100 days" style="rounded=0;whiteSpace=wrap;html=1;strokeColor=#D6D6D6;fillColor=#FFFFFF;align=left;spacingLeft=10;spacingRight=8;fontSize=11;" vertex="1" parent="HTxTwTqboUQHKQJmIyJy-227">
          <mxGeometry y="130" width="120" height="30" as="geometry" />
        </mxCell>
        <mxCell id="HTxTwTqboUQHKQJmIyJy-62" value="1 day" style="rounded=0;whiteSpace=wrap;html=1;strokeColor=#D6D6D6;fillColor=#FFFFFF;align=left;spacingLeft=10;spacingRight=8;fontSize=11;" vertex="1" parent="HTxTwTqboUQHKQJmIyJy-227">
          <mxGeometry y="190" width="120" height="30" as="geometry" />
        </mxCell>
        <mxCell id="HTxTwTqboUQHKQJmIyJy-63" value="101th day" style="rounded=0;whiteSpace=wrap;html=1;strokeColor=#D6D6D6;fillColor=#FFFFFF;align=left;spacingLeft=10;spacingRight=8;fontSize=11;" vertex="1" parent="HTxTwTqboUQHKQJmIyJy-227">
          <mxGeometry y="220" width="120" height="30" as="geometry" />
        </mxCell>
        <mxCell id="HTxTwTqboUQHKQJmIyJy-72" value="First day" style="rounded=0;whiteSpace=wrap;html=1;strokeColor=#D6D6D6;fillColor=#FFFFFF;align=left;spacingLeft=10;spacingRight=8;fontSize=11;" vertex="1" parent="HTxTwTqboUQHKQJmIyJy-227">
          <mxGeometry y="280" width="120" height="30" as="geometry" />
        </mxCell>
        <mxCell id="HTxTwTqboUQHKQJmIyJy-75" value="100 days" style="rounded=0;whiteSpace=wrap;html=1;strokeColor=#D6D6D6;fillColor=#FFFFFF;align=left;spacingLeft=10;spacingRight=8;fontSize=11;" vertex="1" parent="HTxTwTqboUQHKQJmIyJy-227">
          <mxGeometry y="310" width="120" height="30" as="geometry" />
        </mxCell>
        <mxCell id="HTxTwTqboUQHKQJmIyJy-77" value="10 days" style="rounded=0;whiteSpace=wrap;html=1;strokeColor=#D6D6D6;fillColor=#F4E8FF;align=left;spacingLeft=10;spacingRight=8;fontSize=11;" vertex="1" parent="HTxTwTqboUQHKQJmIyJy-227">
          <mxGeometry y="340" width="120" height="30" as="geometry" />
        </mxCell>
        <mxCell id="HTxTwTqboUQHKQJmIyJy-81" value="90th day of Key A cycle/&lt;br style=&quot;font-size: 9px;&quot;&gt;1st day of Key B cycle" style="rounded=0;whiteSpace=wrap;html=1;strokeColor=#D6D6D6;fillColor=#FFFFFF;align=left;spacingLeft=10;spacingRight=8;fontSize=9;" vertex="1" parent="HTxTwTqboUQHKQJmIyJy-227">
          <mxGeometry y="370" width="120" height="30" as="geometry" />
        </mxCell>
        <mxCell id="HTxTwTqboUQHKQJmIyJy-84" value="95th day of Key A cycle/ 6th day of Key B cycle" style="rounded=0;whiteSpace=wrap;html=1;strokeColor=#D6D6D6;fillColor=#FFFFFF;align=left;spacingLeft=10;spacingRight=8;fontSize=9;" vertex="1" parent="HTxTwTqboUQHKQJmIyJy-227">
          <mxGeometry y="400" width="120" height="30" as="geometry" />
        </mxCell>
        <mxCell id="HTxTwTqboUQHKQJmIyJy-105" value="101 days" style="rounded=0;whiteSpace=wrap;html=1;strokeColor=#D6D6D6;fillColor=#FBE1C0;align=left;spacingLeft=10;spacingRight=8;fontSize=11;" vertex="1" parent="HTxTwTqboUQHKQJmIyJy-227">
          <mxGeometry y="250" width="120" height="30" as="geometry" />
        </mxCell>
        <mxCell id="HTxTwTqboUQHKQJmIyJy-214" value="100th day" style="rounded=0;whiteSpace=wrap;html=1;strokeColor=#D6D6D6;fillColor=#FFFFFF;align=left;spacingLeft=10;spacingRight=8;fontSize=11;" vertex="1" parent="HTxTwTqboUQHKQJmIyJy-227">
          <mxGeometry y="160" width="120" height="30" as="geometry" />
        </mxCell>
        <mxCell id="HTxTwTqboUQHKQJmIyJy-222" value="&lt;font style=&quot;font-size: 35px;&quot;&gt;•&lt;/font&gt;" style="rounded=0;whiteSpace=wrap;html=1;fontFamily=Helvetica;fontSize=12;fontColor=#A680B8;align=center;strokeColor=none;fillColor=none;container=0;" vertex="1" parent="1">
          <mxGeometry x="1120" y="420" width="20" height="30" as="geometry" />
        </mxCell>
        <mxCell id="HTxTwTqboUQHKQJmIyJy-223" value="&lt;font style=&quot;font-size: 35px;&quot;&gt;•&lt;/font&gt;" style="rounded=0;whiteSpace=wrap;html=1;fontFamily=Helvetica;fontSize=12;fontColor=#A680B8;align=center;strokeColor=none;fillColor=none;container=0;" vertex="1" parent="1">
          <mxGeometry x="1220" y="450" width="20" height="30" as="geometry" />
        </mxCell>
        <mxCell id="HTxTwTqboUQHKQJmIyJy-224" value="" style="group" vertex="1" connectable="0" parent="1">
          <mxGeometry x="760" y="50" width="120" height="430" as="geometry" />
        </mxCell>
        <mxCell id="HTxTwTqboUQHKQJmIyJy-118" value="1" style="whiteSpace=wrap;html=1;aspect=fixed;strokeColor=none;strokeWidth=1;fillColor=none;fontColor=#000000;align=center;fontSize=10;" vertex="1" parent="HTxTwTqboUQHKQJmIyJy-224">
          <mxGeometry x="80" y="20" width="20" height="20" as="geometry" />
        </mxCell>
        <mxCell id="HTxTwTqboUQHKQJmIyJy-119" value="2" style="whiteSpace=wrap;html=1;aspect=fixed;strokeColor=none;strokeWidth=1;fillColor=none;fontColor=#000000;align=center;fontSize=10;" vertex="1" parent="HTxTwTqboUQHKQJmIyJy-224">
          <mxGeometry x="100" y="20" width="20" height="20" as="geometry" />
        </mxCell>
        <mxCell id="HTxTwTqboUQHKQJmIyJy-185" value="&lt;font style=&quot;font-size: 35px;&quot;&gt;•&lt;/font&gt;" style="rounded=0;whiteSpace=wrap;html=1;fontFamily=Helvetica;fontSize=12;fontColor=#009900;align=center;strokeColor=#D6D6D6;fillColor=none;container=0;" vertex="1" parent="HTxTwTqboUQHKQJmIyJy-224">
          <mxGeometry x="80" y="100" width="20" height="30" as="geometry" />
        </mxCell>
        <mxCell id="HTxTwTqboUQHKQJmIyJy-39" value="101 days" style="rounded=0;whiteSpace=wrap;html=1;strokeColor=#D6D6D6;fillColor=#f7c382;align=left;spacingLeft=10;spacingRight=8;fontSize=11;" vertex="1" parent="HTxTwTqboUQHKQJmIyJy-224">
          <mxGeometry x="-40" y="40" width="120" height="30" as="geometry" />
        </mxCell>
      </root>
    </mxGraphModel>
  </diagram>
</mxfile>
